<svg width="36" height="36" fill="none" xmlns="http://www.w3.org/2000/svg"><g clip-path="url(#clip0_220_48)"><path d="M11.201-.083L9.568.41A7.982 7.982 0 003.97 6.918c-.678 4.716.837 10.23 4.488 16.554 3.642 6.308 7.65 10.371 12.063 12.15a7.98 7.98 0 008.472-1.608l1.238-1.172a4.56 4.56 0 00.561-5.981L27.7 22.573a3.42 3.42 0 00-3.774-1.268l-4.677 1.43-.121.023c-.515.075-1.704-1.04-3.186-3.607-1.55-2.687-1.874-4.258-1.446-4.664l2.381-2.219a5.694 5.694 0 001.31-6.5L16.68 2.415a4.561 4.561 0 00-5.478-2.497H11.2zm3.398 3.432l1.507 3.355a3.414 3.414 0 01-.784 3.9l-2.385 2.22c-1.528 1.444-1.022 3.914 1.028 7.467 1.931 3.343 3.692 4.994 5.582 4.707l.283-.06 4.762-1.452a1.14 1.14 0 011.259.421l3.092 4.288a2.28 2.28 0 01-.28 2.992l-1.239 1.172a5.701 5.701 0 01-6.05 1.147c-3.872-1.56-7.532-5.27-10.941-11.174-3.417-5.918-4.799-10.951-4.206-15.09a5.701 5.701 0 014-4.65l1.635-.493A2.28 2.28 0 0114.6 3.35z" fill="#0395A4"/></g><defs><clipPath id="clip0_220_48"><path fill="#fff" d="M0 0h36v36H0z"/></clipPath></defs></svg>