<svg width="40" height="40" fill="none" xmlns="http://www.w3.org/2000/svg"><circle cx="19.877" cy="19.631" r="19.631" fill="#0395A4"/><g clip-path="url(#clip0_334_27)" opacity=".89"><path d="M27.702 13.23a7.752 7.752 0 01-2.233 1.088 3.186 3.186 0 00-5.59 2.134v.711a7.581 7.581 0 01-6.402-3.222s-2.845 6.401 3.556 9.246a8.279 8.279 0 01-4.978 1.423c6.401 3.556 14.225 0 14.225-8.18 0-.198-.02-.395-.057-.59a5.49 5.49 0 001.48-2.61v0z" stroke="#fff" stroke-width="1.423" stroke-linecap="round" stroke-linejoin="round"/></g><defs><clipPath id="clip0_334_27"><path fill="#fff" transform="translate(11.344 11.098)" d="M0 0h17.07v17.07H0z"/></clipPath></defs></svg>